# ProBuilder 5.0.6
# https://unity3d.com/unity/features/worldbuilding/probuilder
# 9/17/2022 6:27:02 PM

mtllib ./CTA_Card.mtl
o CTA Card

g CTA Card
v 9.594141E-10 0.00842803 -2.338835E-11
v -0.1023877 0.00842806 -0.002930403
v -0.09758566 0.00842806 0.08690399
v 0.05246611 0.00842803 0.08032787
v 0.05250937 0.00842806 0.02751686
v -0.1023877 2.980232E-08 -0.002930403
v 0 0 0
v -0.09758566 2.980232E-08 0.08690399
v 0.05246611 0 0.08032787
v 0.05250937 2.980232E-08 0.02751686

vt -5.807634E-17 -4.467645E-18
vt 0.1023877 -0.002930403
vt 0.09758566 0.08690399
vt -0.05246611 0.08032787
vt -0.05250937 0.02751686
vt -0.1023877 -0.002930403
vt -0.09758566 0.08690399
vt 0.05246611 0.08032787
vt 0.05250937 0.02751686
vt 0.1024297 2.980232E-08
vt 0.1024297 0.00842806
vt -9.583523E-10 0.00842803
vt 0.08157111 2.980232E-08
vt -0.008391537 2.980232E-08
vt 0.08157111 0.00842806
vt -0.008391537 0.00842806
vt 0.04889875 0
vt -0.1012971 2.980232E-08
vt 0.04889875 0.00842803
vt -0.1012971 0.00842806
vt -0.05928247 2.980232E-08
vt -0.05928247 0.00842806
vt -0.02747384 2.980232E-08
vt -0.08028487 0
vt -0.02747384 0.00842806
vt -0.08028487 0.00842803

vn -1.261036E-07 1 1.406386E-07
vn -2.915191E-07 -1 1.558309E-08
vn 0.02860893 0 -0.9995907
vn -0.9985744 0 0.05337857
vn 0.04378365 0 0.9990411
vn 0.4641652 -5.529677E-08 -0.8857487
vn 0.9999997 0 0.0008191105

usemtl Clean_Concrete_Ground_Material
f 3/3/1 1/1/1 2/2/1
f 4/4/1 1/1/1 3/3/1
f 4/4/1 5/5/1 1/1/1
f 7/1/2 10/9/2 9/8/2
f 8/7/2 7/1/2 9/8/2
f 6/6/2 7/1/2 8/7/2
f 1/12/3 7/1/3 6/10/3
f 6/10/3 2/11/3 1/12/3
f 2/16/4 6/14/4 8/13/4
f 8/13/4 3/15/4 2/16/4
f 3/20/5 8/18/5 9/17/5
f 9/17/5 4/19/5 3/20/5
f 5/22/6 10/21/6 7/1/6
f 7/1/6 1/12/6 5/22/6
f 4/26/7 9/24/7 10/23/7
f 10/23/7 5/25/7 4/26/7

